<svg width="96" height="96" xmlns="http://www.w3.org/2000/svg" xmlns:xlink="http://www.w3.org/1999/xlink" xml:space="preserve" overflow="hidden"><g transform="translate(-481 -224)"><path d="M505 250 553 250 553 282 505 282Z" stroke="#93C572" fill="#93C572"/><path d="M539 240 531 240 531 228 527 228 527 240 519 240 519 246 539 246Z" stroke="#93C572" fill="#93C572"/><path d="M557.7 316 547.8 292 553 292 553 286 505 286 505 292 510.2 292 500.3 316 504.6 316 514.6 292 527 292 527 306 531 306 531 292 543.4 292 553.4 316Z" stroke="#93C572" fill="#93C572"/></g></svg>